# xmcd
#
# Track frame offsets: 
#        150
#        17222
#        42747
#        72532
#        92537
#        119749
#        137648
#        151674
#        167003
#
# Disc length: 2458 seconds
#
# Revision: 1
# Processed by: cddbd v1.5.2PL0 Copyright (c) Steve Scherf et al.
# Submitted via: ExactAudioCopyFreeDBPlugin 1.0
#
DISCID=7a099809
DTITLE=Buddy Rich And The Big Band Machine - Speak No Evil
DYEAR=1976
DGENRE=Jazz+Funk
TTITLE0=Speak No Evil
TTITLE1=Yearnin' Learnin'
TTITLE2=Storm At Sunup
TTITLE3=Love Me Now
TTITLE4=Fight The Power
TTITLE5=Games People Play
TTITLE6=Sophisticated Lady (She's A Different Lady)
TTITLE7=Sneakin' Up Behind You
TTITLE8=How Long (Betcha Got A Chick)
EXTD=YEAR: 2008
EXTT0=
EXTT1=
EXTT2=
EXTT3=
EXTT4=
EXTT5=
EXTT6=
EXTT7=
EXTT8=
PLAYORDER=
